<?xml version="1.0" encoding="UTF-8"?>
<svg width="801px" height="401px" viewBox="0 0 801 401" version="1.1" xmlns="http://www.w3.org/2000/svg" xmlns:xlink="http://www.w3.org/1999/xlink">
    <!-- Generator: Sketch 61 (89581) - https://sketch.com -->
    <title>puzzle_new_crooked_16x8</title>
    <desc>Created with Sketch.</desc>
    <g id="Page-1" stroke="none" stroke-width="1" fill="none" fill-rule="evenodd">
        <g id="puzzle_new_crooked_16x8" transform="translate(0.500000, 0.500000)" stroke="#000000">
            <g id="Group">
                <path d="M0,46 C40,52 5,58 25,61 C45,64 10,47 50,53" id="Path"></path>
                <path d="M50,53 C85,49 54,42 72,40 C90,38 59,52 94,48" id="Path"></path>
                <path d="M94,48 C134,56 99,38 119,42 C139,46 104,50 144,58" id="Path"></path>
                <path d="M144,58 C182,53 149,68 168,66 C187,64 154,57 192,52" id="Path"></path>
                <path d="M192,52 C238,46 198,41 221,38 C244,35 204,51 250,45" id="Path"></path>
                <path d="M250,45 C284,47 255,57 272,58 C289,59 259,46 293,48" id="Path"></path>
                <path d="M293,48 C344,46 299,59 325,58 C351,57 306,47 357,45" id="Path"></path>
                <path d="M357,45 C391,56 361,35 378,41 C395,47 365,48 399,59" id="Path"></path>
                <path d="M399,59 C433,52 403,70 420,66 C437,62 407,57 441,50" id="Path"></path>
                <path d="M441,50 C481,51 446,62 466,62 C486,62 451,50 491,51" id="Path"></path>
                <path d="M491,51 C545,57 498,63 525,66 C552,69 504,52 558,58" id="Path"></path>
                <path d="M558,58 C584,56 562,47 575,46 C588,45 565,58 591,56" id="Path"></path>
                <path d="M591,56 C634,46 596,66 618,61 C640,56 602,53 645,43" id="Path"></path>
                <path d="M645,43 C691,51 651,55 674,59 C697,63 657,45 703,53" id="Path"></path>
                <path d="M703,53 C737,43 708,41 725,36 C742,31 712,51 746,41" id="Path"></path>
                <path d="M746,41 C789,43 751,31 773,32 C795,33 757,42 800,44" id="Path"></path>
                <path d="M0,100 C46,102 6,112 29,113 C52,114 12,101 58,103" id="Path"></path>
                <path d="M58,103 C96,105 63,93 82,94 C101,95 67,104 105,106" id="Path"></path>
                <path d="M105,106 C140,108 109,117 127,118 C145,119 114,106 149,108" id="Path"></path>
                <path d="M149,108 C194,100 155,118 177,114 C199,110 160,106 205,98" id="Path"></path>
                <path d="M205,98 C235,95 209,87 224,85 C239,83 213,97 243,94" id="Path"></path>
                <path d="M243,94 C293,92 249,83 274,82 C299,81 255,93 305,91" id="Path"></path>
                <path d="M305,91 C337,105 309,104 325,111 C341,118 313,94 345,108" id="Path"></path>
                <path d="M345,108 C395,101 352,119 377,115 C402,111 358,106 408,99" id="Path"></path>
                <path d="M408,99 C446,96 413,88 432,86 C451,84 418,98 456,95" id="Path"></path>
                <path d="M456,95 C486,92 460,84 475,82 C490,80 464,94 494,91" id="Path"></path>
                <path d="M494,91 C532,94 499,80 518,82 C537,84 503,92 541,95" id="Path"></path>
                <path d="M541,95 C592,97 547,107 573,108 C599,109 554,96 605,98" id="Path"></path>
                <path d="M605,98 C642,102 610,88 628,90 C646,92 614,99 651,103" id="Path"></path>
                <path d="M651,103 C687,97 656,91 674,88 C692,85 660,101 696,95" id="Path"></path>
                <path d="M696,95 C732,97 701,106 719,107 C737,108 705,95 741,97" id="Path"></path>
                <path d="M741,97 C788,101 747,109 771,111 C795,113 753,98 800,102" id="Path"></path>
                <path d="M0,150 C43,150 5,161 27,161 C49,161 11,150 54,150" id="Path"></path>
                <path d="M54,150 C87,152 59,161 75,162 C91,163 62,150 95,152" id="Path"></path>
                <path d="M95,152 C141,150 101,141 124,140 C147,139 107,151 153,149" id="Path"></path>
                <path d="M153,149 C197,157 159,161 181,165 C203,169 164,151 208,159" id="Path"></path>
                <path d="M208,159 C244,158 213,170 231,170 C249,170 217,159 253,158" id="Path"></path>
                <path d="M253,158 C293,148 258,168 278,163 C298,158 263,156 303,146" id="Path"></path>
                <path d="M303,146 C338,152 307,158 325,161 C343,164 312,148 347,154" id="Path"></path>
                <path d="M347,154 C389,156 352,165 373,166 C394,167 357,154 399,156" id="Path"></path>
                <path d="M399,156 C444,155 405,167 427,167 C449,167 410,156 455,155" id="Path"></path>
                <path d="M455,155 C489,153 459,166 476,165 C493,164 463,155 497,153" id="Path"></path>
                <path d="M497,153 C543,151 503,164 526,163 C549,162 509,152 555,150" id="Path"></path>
                <path d="M555,150 C589,150 559,161 576,161 C593,161 563,150 597,150" id="Path"></path>
                <path d="M597,150 C639,151 602,162 623,162 C644,162 607,150 649,151" id="Path"></path>
                <path d="M649,151 C695,144 655,162 678,158 C701,154 660,149 706,142" id="Path"></path>
                <path d="M706,142 C741,153 710,154 728,160 C746,166 715,145 750,156" id="Path"></path>
                <path d="M750,156 C790,157 755,168 775,168 C795,168 760,156 800,157" id="Path"></path>
                <path d="M0,197 C44,206 6,188 28,192 C50,196 11,199 55,208" id="Path"></path>
                <path d="M55,208 C93,209 60,198 79,198 C98,198 64,208 102,209" id="Path"></path>
                <path d="M102,209 C138,203 107,198 125,195 C143,192 111,208 147,202" id="Path"></path>
                <path d="M147,202 C188,199 153,191 173,189 C193,187 157,201 198,198" id="Path"></path>
                <path d="M198,198 C244,207 204,189 227,193 C250,197 209,200 255,209" id="Path"></path>
                <path d="M255,209 C285,201 259,197 274,193 C289,189 262,207 292,199" id="Path"></path>
                <path d="M292,199 C336,198 298,210 320,210 C342,210 303,199 347,198" id="Path"></path>
                <path d="M347,198 C384,195 352,209 370,207 C388,205 356,197 393,194" id="Path"></path>
                <path d="M393,194 C440,204 399,184 423,189 C447,194 405,196 452,206" id="Path"></path>
                <path d="M452,206 C494,208 457,218 478,219 C499,220 462,207 504,209" id="Path"></path>
                <path d="M504,209 C535,198 508,197 524,191 C540,185 512,206 543,195" id="Path"></path>
                <path d="M543,195 C591,197 549,184 573,185 C597,186 555,195 603,197" id="Path"></path>
                <path d="M603,197 C636,205 608,187 624,191 C640,195 611,199 644,207" id="Path"></path>
                <path d="M644,207 C690,207 650,196 673,196 C696,196 656,207 702,207" id="Path"></path>
                <path d="M702,207 C743,208 708,219 728,219 C748,219 712,207 753,208" id="Path"></path>
                <path d="M753,208 C791,206 758,197 777,196 C796,195 762,207 800,205" id="Path"></path>
                <path d="M0,259 C33,253 5,248 21,245 C37,242 8,258 41,252" id="Path"></path>
                <path d="M41,252 C88,256 47,264 71,266 C95,268 53,253 100,257" id="Path"></path>
                <path d="M100,257 C138,253 105,268 124,266 C143,264 109,256 147,252" id="Path"></path>
                <path d="M147,252 C187,258 152,264 172,267 C192,270 157,253 197,259" id="Path"></path>
                <path d="M197,259 C239,252 202,270 223,266 C244,262 207,257 249,250" id="Path"></path>
                <path d="M249,250 C287,255 254,240 273,242 C292,244 258,251 296,256" id="Path"></path>
                <path d="M296,256 C343,254 302,245 326,244 C350,243 308,256 355,254" id="Path"></path>
                <path d="M355,254 C384,247 359,243 373,239 C387,235 362,252 391,245" id="Path"></path>
                <path d="M391,245 C432,250 397,257 417,259 C437,261 401,246 442,251" id="Path"></path>
                <path d="M442,251 C496,257 449,241 476,244 C503,247 455,252 509,258" id="Path"></path>
                <path d="M509,258 C541,255 513,247 529,245 C545,243 517,257 549,254" id="Path"></path>
                <path d="M549,254 C591,244 554,242 575,237 C596,232 559,252 601,242" id="Path"></path>
                <path d="M601,242 C643,254 607,255 628,261 C649,267 612,245 654,257" id="Path"></path>
                <path d="M654,257 C688,247 658,245 675,240 C692,235 662,255 696,245" id="Path"></path>
                <path d="M696,245 C734,249 701,235 720,237 C739,239 705,246 743,250" id="Path"></path>
                <path d="M743,250 C789,245 749,260 772,258 C795,256 754,249 800,244" id="Path"></path>
                <path d="M0,299 C38,302 5,288 24,290 C43,292 10,300 48,303" id="Path"></path>
                <path d="M48,303 C82,301 53,314 70,313 C87,312 57,303 91,301" id="Path"></path>
                <path d="M91,301 C145,298 98,290 125,288 C152,286 105,300 159,297" id="Path"></path>
                <path d="M159,297 C189,297 163,286 178,286 C193,286 167,297 197,297" id="Path"></path>
                <path d="M197,297 C236,301 202,287 222,289 C242,291 207,298 246,302" id="Path"></path>
                <path d="M246,302 C296,308 252,314 277,317 C302,320 258,303 308,309" id="Path"></path>
                <path d="M308,309 C345,303 313,297 331,294 C349,291 317,307 354,301" id="Path"></path>
                <path d="M354,301 C395,293 360,289 380,285 C400,281 364,299 405,291" id="Path"></path>
                <path d="M405,291 C435,304 409,304 424,310 C439,316 413,294 443,307" id="Path"></path>
                <path d="M443,307 C493,305 450,296 475,295 C500,294 456,306 506,304" id="Path"></path>
                <path d="M506,304 C544,308 511,316 530,318 C549,320 515,305 553,309" id="Path"></path>
                <path d="M553,309 C591,309 558,320 577,320 C596,320 563,309 601,309" id="Path"></path>
                <path d="M601,309 C639,299 606,319 625,314 C644,309 611,306 649,296" id="Path"></path>
                <path d="M649,296 C683,301 653,308 670,310 C687,312 657,297 691,302" id="Path"></path>
                <path d="M691,302 C739,308 697,314 721,317 C745,320 703,303 751,309" id="Path"></path>
                <path d="M751,309 C790,304 756,297 776,295 C796,293 761,308 800,303" id="Path"></path>
                <path d="M0,356 C34,350 5,344 22,341 C39,338 9,354 43,348" id="Path"></path>
                <path d="M43,348 C89,348 49,337 72,337 C95,337 55,348 101,348" id="Path"></path>
                <path d="M101,348 C147,349 107,338 130,338 C153,338 112,348 158,349" id="Path"></path>
                <path d="M158,349 C197,351 163,361 183,362 C203,363 168,350 207,352" id="Path"></path>
                <path d="M207,352 C249,352 212,341 233,341 C254,341 217,352 259,352" id="Path"></path>
                <path d="M259,352 C289,350 263,341 278,340 C293,339 266,351 296,349" id="Path"></path>
                <path d="M296,349 C338,345 302,338 323,336 C344,334 307,348 349,344" id="Path"></path>
                <path d="M349,344 C383,344 353,333 370,333 C387,333 357,344 391,344" id="Path"></path>
                <path d="M391,344 C441,342 398,333 423,332 C448,331 404,343 454,341" id="Path"></path>
                <path d="M454,341 C493,352 459,353 479,359 C499,365 464,344 503,355" id="Path"></path>
                <path d="M503,355 C533,352 507,344 522,342 C537,340 511,354 541,351" id="Path"></path>
                <path d="M541,351 C587,355 547,341 570,343 C593,345 553,352 599,356" id="Path"></path>
                <path d="M599,356 C633,350 603,344 620,341 C637,338 607,354 641,348" id="Path"></path>
                <path d="M641,348 C684,349 646,338 668,338 C690,338 652,348 695,349" id="Path"></path>
                <path d="M695,349 C743,350 701,339 725,339 C749,339 707,349 755,350" id="Path"></path>
                <path d="M755,350 C791,346 760,339 778,337 C796,335 764,349 800,345" id="Path"></path>
                <path d="M58,0 C52,42 46,6 43,27 C40,48 56,11 50,53" id="Path"></path>
                <path d="M50,53 C56,93 40,58 43,78 C46,98 52,63 58,103" id="Path"></path>
                <path d="M58,103 C55,141 47,108 45,127 C43,146 57,112 54,150" id="Path"></path>
                <path d="M54,150 C55,196 44,156 44,179 C44,202 54,162 55,208" id="Path"></path>
                <path d="M55,208 C44,243 43,212 37,230 C31,248 52,217 41,252" id="Path"></path>
                <path d="M41,252 C47,293 31,258 34,278 C37,298 42,262 48,303" id="Path"></path>
                <path d="M48,303 C44,339 59,308 57,326 C55,344 47,312 43,348" id="Path"></path>
                <path d="M43,348 C52,390 34,353 38,374 C42,395 45,358 54,400" id="Path"></path>
                <path d="M92,0 C94,38 103,5 104,24 C105,43 92,10 94,48" id="Path"></path>
                <path d="M94,48 C103,94 107,54 111,77 C115,100 96,60 105,106" id="Path"></path>
                <path d="M105,106 C97,143 93,111 89,129 C85,147 103,115 95,152" id="Path"></path>
                <path d="M95,152 C101,198 85,158 88,181 C91,204 96,163 102,209" id="Path"></path>
                <path d="M102,209 C100,247 91,214 90,233 C89,252 102,219 100,257" id="Path"></path>
                <path d="M100,257 C93,292 89,261 85,279 C81,297 98,266 91,301" id="Path"></path>
                <path d="M91,301 C99,339 81,306 85,325 C89,344 93,310 101,348" id="Path"></path>
                <path d="M101,348 C102,390 91,353 91,374 C91,395 101,358 102,400" id="Path"></path>
                <path d="M154,0 C146,46 164,6 160,29 C156,52 152,12 144,58" id="Path"></path>
                <path d="M144,58 C148,98 134,63 136,83 C138,103 145,68 149,108" id="Path"></path>
                <path d="M149,108 C152,141 160,113 162,129 C164,145 150,116 153,149" id="Path"></path>
                <path d="M153,149 C148,191 163,155 161,176 C159,197 152,160 147,202" id="Path"></path>
                <path d="M147,202 C147,242 136,207 136,227 C136,247 147,212 147,252" id="Path"></path>
                <path d="M147,252 C157,288 137,257 142,275 C147,293 149,261 159,297" id="Path"></path>
                <path d="M159,297 C158,339 148,302 148,323 C148,344 159,307 158,349" id="Path"></path>
                <path d="M158,349 C148,390 146,355 141,375 C136,395 156,359 146,400" id="Path"></path>
                <path d="M201,0 C194,42 190,5 186,26 C182,47 199,10 192,52" id="Path"></path>
                <path d="M192,52 C202,89 183,57 188,75 C193,93 195,61 205,98" id="Path"></path>
                <path d="M205,98 C207,147 195,105 196,129 C197,153 206,110 208,159" id="Path"></path>
                <path d="M208,159 C200,190 218,163 214,179 C210,195 206,167 198,198" id="Path"></path>
                <path d="M198,198 C197,247 187,205 187,229 C187,253 198,210 197,259" id="Path"></path>
                <path d="M197,259 C197,289 208,263 208,278 C208,293 197,267 197,297" id="Path"></path>
                <path d="M197,297 C205,341 209,303 213,325 C217,347 199,308 207,352" id="Path"></path>
                <path d="M207,352 C194,390 194,357 188,376 C182,395 204,362 191,400" id="Path"></path>
                <path d="M252,0 C250,36 241,5 240,23 C239,41 252,9 250,45" id="Path"></path>
                <path d="M250,45 C244,84 239,50 236,70 C233,90 249,55 243,94" id="Path"></path>
                <path d="M243,94 C251,145 255,100 259,126 C263,152 245,107 253,158" id="Path"></path>
                <path d="M253,158 C255,199 242,164 243,184 C244,204 253,168 255,209" id="Path"></path>
                <path d="M255,209 C250,242 265,214 263,230 C261,246 254,217 249,250" id="Path"></path>
                <path d="M249,250 C247,292 238,255 237,276 C236,297 248,260 246,302" id="Path"></path>
                <path d="M246,302 C256,342 259,307 264,327 C269,347 249,312 259,352" id="Path"></path>
                <path d="M259,352 C249,390 247,357 242,376 C237,395 256,362 246,400" id="Path"></path>
                <path d="M309,0 C296,38 296,5 290,24 C284,43 306,10 293,48" id="Path"></path>
                <path d="M293,48 C303,82 305,53 310,70 C315,87 295,57 305,91" id="Path"></path>
                <path d="M305,91 C303,135 316,97 315,119 C314,141 305,102 303,146" id="Path"></path>
                <path d="M303,146 C294,188 313,152 309,173 C305,194 301,157 292,199" id="Path"></path>
                <path d="M292,199 C295,245 303,205 305,228 C307,251 293,210 296,256" id="Path"></path>
                <path d="M296,256 C306,298 286,262 291,283 C296,304 298,267 308,309" id="Path"></path>
                <path d="M308,309 C298,341 296,313 291,329 C286,345 306,317 296,349" id="Path"></path>
                <path d="M296,349 C302,390 286,355 289,375 C292,395 298,359 304,400" id="Path"></path>
                <path d="M346,0 C355,36 359,5 363,23 C367,41 348,9 357,45" id="Path"></path>
                <path d="M357,45 C347,95 367,52 362,77 C357,102 355,58 345,108" id="Path"></path>
                <path d="M345,108 C347,145 356,113 357,131 C358,149 345,117 347,154" id="Path"></path>
                <path d="M347,154 C347,189 336,158 336,176 C336,194 347,163 347,198" id="Path"></path>
                <path d="M347,198 C353,243 359,204 362,226 C365,248 349,209 355,254" id="Path"></path>
                <path d="M355,254 C354,292 366,259 366,278 C366,297 355,263 354,301" id="Path"></path>
                <path d="M354,301 C350,335 365,306 363,323 C361,340 353,310 349,344" id="Path"></path>
                <path d="M349,344 C344,389 337,350 335,372 C333,394 348,355 343,400" id="Path"></path>
                <path d="M397,0 C399,47 408,6 409,30 C410,54 397,12 399,59" id="Path"></path>
                <path d="M399,59 C406,91 411,63 415,79 C419,95 401,67 408,99" id="Path"></path>
                <path d="M408,99 C401,145 397,105 393,128 C389,151 406,110 399,156" id="Path"></path>
                <path d="M399,156 C394,186 387,160 385,175 C383,190 398,164 393,194" id="Path"></path>
                <path d="M393,194 C391,235 404,200 403,220 C402,240 393,204 391,245" id="Path"></path>
                <path d="M391,245 C402,282 381,250 387,268 C393,286 394,254 405,291" id="Path"></path>
                <path d="M405,291 C394,333 415,297 409,318 C403,339 402,302 391,344" id="Path"></path>
                <path d="M391,344 C401,389 403,350 408,372 C413,394 393,355 403,400" id="Path"></path>
                <path d="M449,0 C443,40 459,5 456,25 C453,45 447,10 441,50" id="Path"></path>
                <path d="M441,50 C453,86 432,55 438,73 C444,91 444,59 456,95" id="Path"></path>
                <path d="M456,95 C455,143 467,101 467,125 C467,149 456,107 455,155" id="Path"></path>
                <path d="M455,155 C453,196 444,161 443,181 C442,201 454,165 452,206" id="Path"></path>
                <path d="M452,206 C444,242 440,211 436,229 C432,247 450,215 442,251" id="Path"></path>
                <path d="M442,251 C443,296 432,257 432,279 C432,301 442,262 443,307" id="Path"></path>
                <path d="M443,307 C452,334 434,310 438,324 C442,338 445,314 454,341" id="Path"></path>
                <path d="M454,341 C451,388 443,347 441,371 C439,395 453,353 450,400" id="Path"></path>
                <path d="M504,0 C494,41 514,6 509,26 C504,46 501,10 491,51" id="Path"></path>
                <path d="M491,51 C493,83 503,55 504,71 C505,87 492,59 494,91" id="Path"></path>
                <path d="M494,91 C496,141 506,97 507,122 C508,147 495,103 497,153" id="Path"></path>
                <path d="M497,153 C503,198 487,159 490,181 C493,203 498,164 504,209" id="Path"></path>
                <path d="M504,209 C508,248 494,214 496,234 C498,254 505,219 509,258" id="Path"></path>
                <path d="M509,258 C507,295 498,263 497,281 C496,299 508,267 506,304" id="Path"></path>
                <path d="M506,304 C504,345 517,310 516,330 C515,350 505,314 503,355" id="Path"></path>
                <path d="M503,355 C505,391 492,360 493,378 C494,396 503,364 505,400" id="Path"></path>
                <path d="M543,0 C555,46 534,6 540,29 C546,52 546,12 558,58" id="Path"></path>
                <path d="M558,58 C544,88 546,62 539,77 C532,92 555,65 541,95" id="Path"></path>
                <path d="M541,95 C552,139 553,101 559,123 C565,145 544,106 555,150" id="Path"></path>
                <path d="M555,150 C545,186 565,155 560,173 C555,191 553,159 543,195" id="Path"></path>
                <path d="M543,195 C548,242 555,201 557,225 C559,249 544,207 549,254" id="Path"></path>
                <path d="M549,254 C552,298 560,260 562,282 C564,304 550,265 553,309" id="Path"></path>
                <path d="M553,309 C543,343 541,313 536,330 C531,347 551,317 541,351" id="Path"></path>
                <path d="M541,351 C553,390 532,356 538,376 C544,396 544,361 556,400" id="Path"></path>
                <path d="M595,0 C592,45 584,6 582,28 C580,50 594,11 591,56" id="Path"></path>
                <path d="M591,56 C602,90 581,60 587,77 C593,94 594,64 605,98" id="Path"></path>
                <path d="M605,98 C599,140 593,103 590,124 C587,145 603,108 597,150" id="Path"></path>
                <path d="M597,150 C602,188 609,155 611,174 C613,193 598,159 603,197" id="Path"></path>
                <path d="M603,197 C601,233 592,202 591,220 C590,238 603,206 601,242" id="Path"></path>
                <path d="M601,242 C601,296 612,249 612,276 C612,303 601,255 601,309" id="Path"></path>
                <path d="M601,309 C599,347 590,314 589,333 C588,352 601,318 599,356" id="Path"></path>
                <path d="M599,356 C606,391 589,360 593,378 C597,396 601,365 608,400" id="Path"></path>
                <path d="M658,0 C648,34 646,5 641,22 C636,39 655,9 645,43" id="Path"></path>
                <path d="M645,43 C650,91 657,49 659,73 C661,97 646,55 651,103" id="Path"></path>
                <path d="M651,103 C649,141 662,108 661,127 C660,146 651,113 649,151" id="Path"></path>
                <path d="M649,151 C645,196 638,157 636,179 C634,201 648,162 644,207" id="Path"></path>
                <path d="M644,207 C652,247 656,212 660,232 C664,252 646,217 654,257" id="Path"></path>
                <path d="M654,257 C650,288 643,261 641,277 C639,293 653,265 649,296" id="Path"></path>
                <path d="M649,296 C643,338 637,301 634,322 C631,343 647,306 641,348" id="Path"></path>
                <path d="M641,348 C651,390 654,353 659,374 C664,395 644,358 654,400" id="Path"></path>
                <path d="M703,0 C703,42 692,6 692,27 C692,48 703,11 703,53" id="Path"></path>
                <path d="M703,53 C697,87 692,57 689,74 C686,91 702,61 696,95" id="Path"></path>
                <path d="M696,95 C704,133 686,100 690,119 C694,138 698,104 706,142" id="Path"></path>
                <path d="M706,142 C703,194 695,149 693,175 C691,201 705,155 702,207" id="Path"></path>
                <path d="M702,207 C697,237 690,211 688,226 C686,241 701,215 696,245" id="Path"></path>
                <path d="M696,245 C692,291 707,251 705,274 C703,297 695,256 691,302" id="Path"></path>
                <path d="M691,302 C694,340 680,307 682,326 C684,345 692,311 695,349" id="Path"></path>
                <path d="M695,349 C701,390 685,355 688,375 C691,395 697,359 703,400" id="Path"></path>
                <path d="M744,0 C746,33 733,5 734,21 C735,37 744,8 746,41" id="Path"></path>
                <path d="M746,41 C742,86 735,47 733,69 C731,91 745,52 741,97" id="Path"></path>
                <path d="M741,97 C748,144 753,103 757,127 C761,151 743,109 750,156" id="Path"></path>
                <path d="M750,156 C752,198 762,161 763,182 C764,203 751,166 753,208" id="Path"></path>
                <path d="M753,208 C745,242 741,212 737,229 C733,246 751,216 743,250" id="Path"></path>
                <path d="M743,250 C749,297 733,256 736,280 C739,304 745,262 751,309" id="Path"></path>
                <path d="M751,309 C754,342 762,314 764,330 C766,346 752,317 755,350" id="Path"></path>
                <path d="M755,350 C749,390 744,355 741,375 C738,395 754,360 748,400" id="Path"></path>
            </g>
            <rect id="Rectangle" fill-opacity="0" fill="#000000" fill-rule="nonzero" x="0" y="0" width="800" height="400"></rect>
        </g>
    </g>
</svg>